<?xml version="1.0" encoding="UTF-8"?>
<svg width="24px" height="24px" viewBox="0 0 24 24" version="1.1" xmlns="http://www.w3.org/2000/svg" xmlns:xlink="http://www.w3.org/1999/xlink">
    <!-- Generator: Sketch 52.2 (67145) - http://www.bohemiancoding.com/sketch -->
    <title>icons_filled_transfer</title>
    <desc>Created with Sketch.</desc>
    <g id="icons_filled_transfer" stroke="none" stroke-width="1" fill="none" fill-rule="evenodd">
        <path d="M9.13336093,8.5 L20.5,8.5 L20.5,10.5 L3.66024655,10.5 C3.38410417,10.5 3.16024655,10.2761424 3.16024655,10 C3.16024655,9.84330152 3.23370788,9.69566601 3.35870221,9.60116293 L9.47829169,4.97439252 C9.654509,4.84116185 9.90536615,4.8760094 10.0385968,5.05222671 C10.1165594,5.15534375 10.1398815,5.28978131 10.1012064,5.41313252 L9.13336093,8.5 Z M14.8655465,15.5 L3.5,15.5 L3.5,13.5 L18.9989074,13.5 L20.3386608,13.5 C20.6148032,13.5 20.8386608,13.7238576 20.8386608,14 C20.8386608,14.1566985 20.7651995,14.304334 20.6402052,14.3988371 L14.5206157,19.0256075 C14.3443984,19.1588382 14.0935412,19.1239906 13.9603106,18.9477733 C13.882348,18.8446563 13.8590259,18.7102187 13.897701,18.5868675 L14.8655465,15.5 Z" id="Combined-Shape" fill="#000000"></path>
    </g>
</svg>