<?xml version="1.0" encoding="UTF-8"?>
<svg width="24px" height="24px" viewBox="0 0 24 24" version="1.1" xmlns="http://www.w3.org/2000/svg" xmlns:xlink="http://www.w3.org/1999/xlink">
    <!-- Generator: Sketch 52.2 (67145) - http://www.bohemiancoding.com/sketch -->
    <title>Icons_Outlined_takephoto_nor</title>
    <desc>Created with Sketch.</desc>
    <g id="Icons_Outlined_takephoto_nor" stroke="none" stroke-width="1" fill="none" fill-rule="evenodd">
        <path d="M12.0365391,17.2773449 C12.1596491,16.673943 12.2063928,16.5300807 12.3676425,16.1245933 C12.5391001,15.6934365 12.7886802,15.1611098 13.1163828,14.5276132 L11.9658399,14.5626605 C11.3452858,14.5523831 10.9214882,14.3601588 10.6410504,14.1832767 M5.21510636,15.7775863 C4.73168052,14.9192344 4.7233369,14.4466934 5.69482523,13.5132828 C6.34248411,12.891009 7.09469337,12.2452772 7.95145299,11.5760874 C8.08201388,11.4708591 8.2287027,11.3901926 8.38411223,11.3341933 C8.82939647,11.1737424 9.15026119,11.3515625 9.31437764,11.7118522 C9.16507628,11.0822267 10.3343905,10.9259297 11.0144756,10.8170219 C11.5036679,10.7386834 11.7520626,10.6993879 13.2143884,10.7200233 C14.6767142,10.7406587 17.4656251,10.9504905 17.6942539,14.0541091 C17.7782687,15.1946042 17.602906,16.6877366 17.1681658,18.5335063 C16.4796995,21.1939454 14.0353345,23.3160117 10.4161382,22.1400635 C9.20504289,21.7465548 7.61257037,19.8625983 5.63872063,16.4881941 C5.58120125,16.4038143 5.26843073,15.872267 5.21510636,15.7775863 Z M9.37240098,11.3501752 C9.31451391,11.5283333 9.30249175,11.7363382 9.34963951,11.9382522 L9.48077199,12.4998374 C9.65088887,13.2283763 10.090105,13.836389 10.678439,14.2074723 M10.5633528,14.3839727 L7.59187634,16.6525442 C6.63584505,17.2312204 6.02392372,16.8950454 5.38992667,16.0462682 M8.74229118,11.018421 L6.39820244,6.20236948 C6.12754171,5.4075851 6.51975676,4.53215084 7.27423927,4.24703234 C8.0356685,3.96096472 8.72471796,4.33868218 9.15032804,5.16830839 L10.8065914,8.11171066 C11.0487173,8.49120968 11.3961417,8.86609787 11.9762772,8.77458613 C12.5564127,8.68307439 12.9008614,8.34765942 12.9008614,7.81884421 L12.8290325,4.11706609 C12.8290325,3.36492475 13.179951,2.72464834 13.950935,2.57167834 C13.9793346,2.56604362 14.0078907,2.56132314 14.0365636,2.55752347 C14.8807528,2.44565338 15.6635175,3.03995641 15.8297508,3.91897545 L16.3650162,11.3987812" id="Shape" stroke="#000000" stroke-width="1.2" transform="translate(11.304720, 12.508128) rotate(-19.000000) translate(-11.304720, -12.508128) "></path>
        <path d="M18.2000001,4.74280917 L16.9252939,5.41661314 C16.8017622,5.4819114 16.6486854,5.43470392 16.5833871,5.3111723 C16.5442855,5.23719966 16.5442855,5.14867903 16.5833871,5.07470639 L17.2571911,3.80000012 L16.5833871,2.52529386 C16.5180889,2.40176223 16.5652963,2.24868537 16.6888279,2.18338711 C16.7628006,2.14428551 16.8513212,2.14428551 16.9252939,2.18338711 L18.2000001,2.85719108 L19.4747064,2.18338711 C19.598238,2.11808885 19.7513149,2.16529632 19.8166131,2.28882795 C19.8557147,2.36280059 19.8557147,2.45132122 19.8166131,2.52529386 L19.1428092,3.80000012 L19.8166131,5.07470639 C19.8819114,5.19823802 19.8347039,5.35131488 19.7111723,5.41661314 C19.6371997,5.45571474 19.548679,5.45571474 19.4747064,5.41661314 L18.2000001,4.74280917 Z" id="Star" fill="#000000" transform="translate(18.200000, 3.800000) rotate(45.000000) translate(-18.200000, -3.800000) "></path>
    </g>
</svg>