<?xml version="1.0" encoding="UTF-8"?>
<svg width="24px" height="24px" viewBox="0 0 24 24" version="1.1" xmlns="http://www.w3.org/2000/svg" xmlns:xlink="http://www.w3.org/1999/xlink">
    <!-- Generator: Sketch 50.2 (55047) - http://www.bohemiancoding.com/sketch -->
    <title>icons_outlined_mini-program</title>
    <desc>Created with Sketch.</desc>
    <defs></defs>
    <g id="icons_outlined_mini-program" stroke="none" stroke-width="1" fill="none" fill-rule="evenodd">
        <g id="icon9" fill="#000000" fill-rule="nonzero">
            <path d="M20.85,8.47124601 C20.85,6.08353684 18.704336,4.15 16.0495208,4.15 C13.3947056,4.15 11.2490415,6.08353684 11.2490415,8.47124601 L11.2490415,15.6597444 C11.2490415,17.2494467 9.75229473,18.5269968 7.90255591,18.5269968 C6.05281709,18.5269968 4.55607029,17.2494467 4.55607029,15.6597444 C4.55607029,14.3878857 5.53933987,13.2755734 6.94481848,12.9363251 C7.34636918,12.8359423 7.72220501,12.5389447 7.86614827,12.2038445 C7.88602145,12.1645651 7.89838337,12.1281057 7.90460161,12.0907962 C7.90961585,12.0607108 7.91089644,12.0363482 7.91070288,11.9696486 C7.91070288,11.6570025 7.64279155,11.434345 7.23162939,11.434345 L7.06238872,11.4326551 C4.80838134,11.7738887 3.15,13.5672793 3.15,15.6597444 C3.15,18.0474536 5.29566403,19.9809904 7.95047923,19.9809904 C10.6052944,19.9809904 12.7509585,18.0474536 12.7509585,15.6597444 L12.7509585,8.47124601 C12.7509585,6.88154376 14.2477053,5.60399361 16.0974441,5.60399361 C17.9471829,5.60399361 19.4439297,6.88154376 19.4439297,8.47124601 C19.4439297,9.78153042 18.4708219,10.9008875 17.0513344,11.2434967 C16.6371967,11.3355034 16.2891338,11.6135119 16.1370777,11.9682755 C15.9473315,12.3951769 16.2244761,12.7445687 16.7667673,12.7445773 L16.9733358,12.7423692 C19.2359728,12.3436728 20.85,10.5733528 20.85,8.47124601 Z" id="XMLID_19_"></path>
        </g>
    </g>
</svg>