<?xml version="1.0" encoding="UTF-8"?>
<svg width="24px" height="24px" viewBox="0 0 24 24" version="1.1" xmlns="http://www.w3.org/2000/svg" xmlns:xlink="http://www.w3.org/1999/xlink">
    <!-- Generator: Sketch 52.2 (67145) - http://www.bohemiancoding.com/sketch -->
    <title>icons_filled_radar</title>
    <desc>Created with Sketch.</desc>
    <g id="icons_filled_radar" stroke="none" stroke-width="1" fill="none" fill-rule="evenodd">
        <g id="icon22" fill="#000000" fill-rule="nonzero">
            <path d="M16.9056439,5.68014258 C15.5509601,4.62708161 13.8487115,4 12,4 C7.581722,4 4,7.581722 4,12 C4,16.418278 7.581722,20 12,20 C16.418278,20 20,16.418278 20,12 C20,10.1512885 19.3729184,8.44903985 18.3198574,7.09435615 L16.8907479,8.52346564 C17.589209,9.50428451 18,10.7041696 18,12 C18,15.3137085 15.3137085,18 12,18 C8.6862915,18 6,15.3137085 6,12 C6,8.6862915 8.6862915,6 12,6 C13.2958304,6 14.4957155,6.41079097 15.4765344,7.10925208 L16.9056439,5.68014258 Z M14.0319673,8.55381909 C13.4364541,8.20192939 12.7418086,8 12,8 C9.790861,8 8,9.790861 8,12 C8,14.209139 9.790861,16 12,16 C14.209139,16 16,14.209139 16,12 C16,11.2581914 15.7980706,10.5635459 15.4461809,9.96803265 L13.9322568,11.4819568 C13.9764427,11.6471834 14,11.8208407 14,12 C14,13.1045695 13.1045695,14 12,14 C10.8954305,14 10,13.1045695 10,12 C10,10.8954305 10.8954305,10 12,10 C12.1791593,10 12.3528166,10.0235573 12.5180432,10.0677432 L14.0319673,8.55381909 Z M12,22 C6.4771525,22 2,17.5228475 2,12 C2,6.4771525 6.4771525,2 12,2 C17.5228475,2 22,6.4771525 22,12 C22,17.5228475 17.5228475,22 12,22 Z" id="Combined-Shape"></path>
        </g>
    </g>
</svg>