<?xml version="1.0" encoding="UTF-8"?>
<svg width="24px" height="24px" viewBox="0 0 24 24" version="1.1" xmlns="http://www.w3.org/2000/svg" xmlns:xlink="http://www.w3.org/1999/xlink">
    <!-- Generator: Sketch 50.2 (55047) - http://www.bohemiancoding.com/sketch -->
    <title>icons_outlined_at</title>
    <desc>Created with Sketch.</desc>
    <defs></defs>
    <g id="icons_outlined_at" stroke="none" stroke-width="1" fill="none" fill-rule="evenodd">
        <g id="icon22" fill="#000000">
            <path d="M11.2695312,8.1875 C9.5703125,8.1875 8.46875,9.62890625 8.46875,11.84375 C8.46875,14.046875 9.55859375,15.4765625 11.2578125,15.4765625 C12.9921875,15.4765625 14.1054688,14.0234375 14.1054688,11.7851562 C14.1054688,9.58203125 13.015625,8.1875 11.2695312,8.1875 Z M11.6445312,2 C16.779824,2 21.0195312,5.52734375 21.0195312,10.71875 C21.0195312,14.4453125 19.4726562,16.8359375 16.8945312,16.8359375 C15.5,16.8359375 14.3984375,15.9921875 14.2226562,14.6796875 L14.140625,14.6796875 C13.6132812,16.015625 12.5234375,16.7539062 11.0703125,16.7539062 C8.65625,16.7539062 7.015625,14.7617187 7.015625,11.8085937 C7.015625,8.92578125 8.6796875,6.93359375 11.0703125,6.93359375 C12.4296875,6.93359375 13.6132812,7.671875 14.046875,8.8203125 L14.1289062,8.8203125 L14.1289062,7.16796875 L15.4882812,7.16796875 L15.4882812,13.8710937 C15.4882812,14.9375 16.0507812,15.640625 17.1171875,15.640625 C18.6757812,15.640625 19.7421875,13.8476562 19.7421875,10.6953125 C19.7421875,6.21875 16.2381961,3.17570471 11.6445312,3.17570471 C7.05086641,3.17570471 3.2890625,6.52563768 3.2890625,11.7734375 C3.2890625,16.6481839 7.3031848,20.3632812 11.7734375,20.3632812 C13.3554688,20.3632812 14.8671875,20.1640625 15.6640625,19.8476562 L15.6640625,21.0078125 C14.7148438,21.3359375 13.3320312,21.5234375 11.7617188,21.5234375 C6.19794948,21.5234375 2,17.3256061 2,11.7265625 C2,6.12751891 6.50923846,2 11.6445312,2 Z" id="@"></path>
        </g>
    </g>
</svg>