<?xml version="1.0" encoding="UTF-8"?>
<svg width="24px" height="24px" viewBox="0 0 24 24" version="1.1" xmlns="http://www.w3.org/2000/svg" xmlns:xlink="http://www.w3.org/1999/xlink">
    <!-- Generator: Sketch 52.2 (67145) - http://www.bohemiancoding.com/sketch -->
    <title>icons_filled_mobile-contacts</title>
    <desc>Created with Sketch.</desc>
    <g id="icons_filled_mobile-contacts" stroke="none" stroke-width="1" fill="none" fill-rule="evenodd">
        <g id="Group" fill="#000000">
            <path d="M4,3 C4,2.44771525 4.44771525,2 5,2 L19,2 C19.5522847,2 20,2.44771525 20,3 L20,21 C20,21.5522847 19.5522847,22 19,22 L5,22 C4.44771525,22 4,21.5522847 4,21 L4,3 Z M14.9093627,13.8061065 C14.8168266,13.7753075 14.7782699,13.790707 14.6934452,13.8369056 C14.4158368,13.9909008 13.7372387,14.3604895 13.3362489,14.5683831 C13.2360015,14.6222815 13.1280427,14.6530805 13.0046612,14.6530805 C12.8735684,14.6530805 12.7578982,14.6145817 12.6576508,14.5529836 C12.0947228,14.2218938 11.5626402,13.8369056 11.107671,13.3749197 C10.6527018,12.9206337 10.2671347,12.38935 9.93554693,11.8272672 C9.87385619,11.7271703 9.83529948,11.6039741 9.83529948,11.4807779 C9.83529948,11.3652814 9.86614485,11.2497849 9.92012424,11.149688 C10.1283305,10.7416005 10.4984749,10.0640213 10.6527018,9.7945296 C10.6989698,9.7098322 10.7143925,9.66363362 10.6835471,9.57893621 L10.028083,7.83878961 C9.94325827,7.63859575 9.75047471,7.50769976 9.51913444,7.5 C9.42659833,7.5 9.31863954,7.53849882 9.29550551,7.54619858 C8.53979396,7.82339008 8,8.53946811 8,9.38644212 C8,9.6251348 8.06169074,9.84842795 8.06940208,9.90232629 C8.43954651,11.5192767 9.26466015,12.9591325 10.3982275,14.0909978 C11.5317948,15.222863 12.9738158,16.0467378 14.5931977,16.4163264 C14.6471771,16.431726 14.870806,16.4856243 15.1098576,16.4856243 C15.9581053,16.4856243 16.6752601,15.9466408 16.9528685,15.192064 C16.9605798,15.1689647 17.0068479,15.061168 16.9991365,14.9687708 C16.9837138,14.7377779 16.852621,14.5452838 16.6521261,14.4605864 L14.9093627,13.8061065 Z" id="Combined-Shape"></path>
        </g>
    </g>
</svg>