<?xml version="1.0" encoding="UTF-8"?>
<svg width="24px" height="24px" viewBox="0 0 24 24" version="1.1" xmlns="http://www.w3.org/2000/svg" xmlns:xlink="http://www.w3.org/1999/xlink">
    <!-- Generator: Sketch 52.2 (67145) - http://www.bohemiancoding.com/sketch -->
    <title>icons_filled_sticker</title>
    <desc>Created with Sketch.</desc>
    <g id="icons_filled_sticker" stroke="none" stroke-width="1" fill="none" fill-rule="evenodd">
        <g id="icon23" fill="#000000">
            <g id="Group-19" transform="translate(2.000000, 2.000000)">
                <path d="M10,20 C4.4771525,20 0,15.5228475 0,10 C0,4.4771525 4.4771525,0 10,0 C15.5228475,0 20,4.4771525 20,10 C20,15.5228475 15.5228475,20 10,20 Z M10,16 C12.8690213,16 15.2249641,13.80325 15.4775785,11 L4.52242151,11 C4.7750359,13.80325 7.13097872,16 10,16 Z M6.5,8.5 C7.32842712,8.5 8,7.82842712 8,7 C8,6.17157288 7.32842712,5.5 6.5,5.5 C5.67157288,5.5 5,6.17157288 5,7 C5,7.82842712 5.67157288,8.5 6.5,8.5 Z M13.5,8.5 C14.3284271,8.5 15,7.82842712 15,7 C15,6.17157288 14.3284271,5.5 13.5,5.5 C12.6715729,5.5 12,6.17157288 12,7 C12,7.82842712 12.6715729,8.5 13.5,8.5 Z" id="Combined-Shape"></path>
            </g>
        </g>
    </g>
</svg>