<?xml version="1.0" encoding="UTF-8"?>
<svg width="24px" height="24px" viewBox="0 0 24 24" version="1.1" xmlns="http://www.w3.org/2000/svg" xmlns:xlink="http://www.w3.org/1999/xlink">
    <!-- Generator: Sketch 50.2 (55047) - http://www.bohemiancoding.com/sketch -->
    <title>icons_outlined_location</title>
    <desc>Created with Sketch.</desc>
    <defs></defs>
    <g id="icons_outlined_location" stroke="none" stroke-width="1" fill="none" fill-rule="evenodd">
        <g id="icon22" fill="#000000" fill-rule="nonzero">
            <path d="M12.0651901,21.2431663 C12.0630099,21.2412009 12.0608557,21.2393247 12.0587282,21.2375353 L12.0651901,21.2431663 Z M12.2468368,20.9686065 C12.4829332,20.7557774 12.7473234,20.5078114 13.0328444,20.2278923 C13.8506337,19.4261479 14.6688921,18.5335242 15.4301661,17.5768797 C17.4693431,15.0143765 18.7113924,12.487102 18.7954866,10.2396817 C18.7984932,10.159331 18.8,10.0794366 18.8,10 C18.8,6.2444637 15.7555363,3.2 12,3.2 C8.2444637,3.2 5.2,6.2444637 5.2,10 C5.2,10.0794366 5.20150681,10.159331 5.20451338,10.2396817 C5.28860758,12.487102 6.5306569,15.0143765 8.56983386,17.5768797 C9.33110795,18.5335242 10.1493663,19.4261479 10.9671556,20.2278923 C11.2526766,20.5078114 11.5170668,20.7557774 11.7531632,20.9686065 C11.8634926,21.068063 11.9469718,21.1413912 12,21.1870148 C12.0530282,21.1413912 12.1365074,21.068063 12.2468368,20.9686065 Z M11.2617188,22.1344765 C11.2617188,22.1344765 4,16.018278 4,10 C4,5.581722 7.581722,2 12,2 C16.418278,2 20,5.581722 20,10 C20,16.018278 12.7382812,22.1344765 12.7382812,22.1344765 C12.3335649,22.5060199 11.6694602,22.502035 11.2617188,22.1344765 Z M12,12.8 C13.5463973,12.8 14.8,11.5463973 14.8,10 C14.8,8.4536027 13.5463973,7.2 12,7.2 C10.4536027,7.2 9.2,8.4536027 9.2,10 C9.2,11.5463973 10.4536027,12.8 12,12.8 Z M12,14 C9.790861,14 8,12.209139 8,10 C8,7.790861 9.790861,6 12,6 C14.209139,6 16,7.790861 16,10 C16,12.209139 14.209139,14 12,14 Z" id="Combined-Shape"></path>
        </g>
    </g>
</svg>