<svg height="24" viewBox="0 0 24 24" width="24" xmlns="http://www.w3.org/2000/svg"><g fill-rule="evenodd"><path d="m18.8048808 17.107824 3.6200981 3.6200981-.8485282.8485281-16.72792202-16.72792203.84852817-.84852817 1.91151886 1.91151886c.65882131-.70732439 1.48648714-1.25528846 2.41882099-1.57971572-.0180193-.1079205-.0273967-.21876671-.0273967-.33180314 0-1.1045695.8954305-2 2-2s2 .8954305 2 2c0 .11303643-.0093774.22388264-.0273967.33180314 2.3446847.81588759 4.0273967 3.045533 4.0273967 5.66819686v4c0 1.0359413.2682936 2.0718826.8048808 3.107824zm-10.34756955-10.3475696 8.44323985 8.4432399c-.0668895-.3994729-.1005511-.800716-.1005511-1.2034943v-4c0-2.05913904-1.3086125-3.86912471-3.2217703-4.53485247l-.955931-.33263844.1666898-.99833211c.0072933-.04368041.0110115-.08843661.0110115-.13417698 0-.4418278-.3581722-.8-.8-.8s-.8.3581722-.8.8c0 .04574037.0037182.09049657.0110115.13417698l.1666898.99833211-.955931.33263844c-.76715874.26695072-1.4371104.71789083-1.96445905 1.29510687zm9.84565795 13.2397717-6.3029692-.0000261h-6.81329327c-.2129811 0-.42039899-.0680017-.59203916-.1940993-.44506719-.3269742-.54080049-.9528374-.21382629-1.3979046 1.07942968-1.4693459 1.61915872-2.938671 1.61915872-4.4079961v-4c0-.69063988.11668844-1.35402571.33142549-1.97151766l.97304788.97304788c-.06858295.32327949-.10447337.65745796-.10447337.99846978v4c0 1.6303277-.55150786 3.2355113-1.62577886 4.8000266l6.42578386-.0000266 5.1029593.0000211z" fill-rule="nonzero"/><path d="m11 20h2v.2c0 .5522848-.4477153 1-1 1-.5522847 0-1-.4477152-1-1z"/></g></svg>