<?xml version="1.0" encoding="UTF-8"?>
<svg width="24px" height="24px" viewBox="0 0 24 24" version="1.1" xmlns="http://www.w3.org/2000/svg" xmlns:xlink="http://www.w3.org/1999/xlink">
    <!-- Generator: Sketch 50.2 (55047) - http://www.bohemiancoding.com/sketch -->
    <title>icons_outlined_like</title>
    <desc>Created with Sketch.</desc>
    <defs></defs>
    <g id="icons_outlined_like" stroke="none" stroke-width="1" fill="none" fill-rule="evenodd">
        <g id="common_icons_like" fill="#000000" fill-rule="nonzero">
            <path d="M19.2846386,12.6450953 C20.7287556,11.1567519 20.7118979,8.7815372 19.243355,7.31299423 C17.7593626,5.82900192 15.3533357,5.82900192 13.8693434,7.31299423 C13.6770786,7.50525906 13.4332063,7.74049974 13.1366138,8.0199452 L12.3137085,8.79527533 L11.4908032,8.0199452 C11.1942107,7.74049974 10.9503384,7.50525906 10.7580736,7.31299423 C9.27408127,5.82900192 6.86805435,5.82900192 5.38406204,7.31299423 C3.9155371,8.78151917 3.89858315,11.1568704 5.32967362,12.6326173 L12.313666,19.6166823 L19.2846386,12.6450953 Z M4.53553391,6.46446609 C6.48815536,4.51184464 9.65398026,4.51184464 11.6066017,6.46446609 C11.7894084,6.6472728 12.0251107,6.87463262 12.3137085,7.14654555 C12.6023063,6.87463262 12.8380086,6.6472728 13.0208153,6.46446609 C14.9734367,4.51184464 18.1392616,4.51184464 20.0918831,6.46446609 C22.0263413,8.39892429 22.0443356,11.5241205 20.145866,13.4807312 L13.0208153,20.6066017 C12.6303114,20.9971464 11.9971464,20.9971796 11.6066017,20.6066757 L4.48114108,13.4811411 C2.5830814,11.5241205 2.60107571,8.39892429 4.53553391,6.46446609 Z" id="Combined-Shape"></path>
        </g>
    </g>
</svg>