<?xml version="1.0" encoding="UTF-8"?>
<svg width="24px" height="24px" viewBox="0 0 24 24" version="1.1" xmlns="http://www.w3.org/2000/svg" xmlns:xlink="http://www.w3.org/1999/xlink">
    <!-- Generator: Sketch 52.2 (67145) - http://www.bohemiancoding.com/sketch -->
    <title>icons_filled_search-logo</title>
    <desc>Created with Sketch.</desc>
    <g id="icons_filled_search-logo" stroke="none" stroke-width="1" fill="none" fill-rule="evenodd">
        <g id="common_icons_searchlogo" transform="translate(3.000000, 3.000000)" fill="#000000" fill-rule="nonzero">
            <path d="M8.40895522,4.80895522 L9.80597015,1.90746269 C9.96716418,1.55820896 9.96716418,1.20895522 9.83283582,0.886567164 C9.69850746,0.564179104 9.42985075,0.32238806 9.05373134,0.188059701 L8.75820896,0.0805970149 C8.6238806,0.0268656716 8.48955224,0 8.35522388,0 C7.7641791,0 7.28059701,0.402985075 7.14626866,0.994029851 L6.52835821,4.13731343 C6.36716418,4.88955224 6.60895522,5.5880597 7.03880597,5.74925373 C7.09253731,5.7761194 7.14626866,5.7761194 7.22686567,5.7761194 C7.62985075,5.80298507 8.11343284,5.4 8.40895522,4.80895522 Z M5.10447761,6.85074627 C5.15820896,6.39402985 4.59402985,5.91044776 3.84179104,5.74925373 L1.53134328,5.18507463 C1.4238806,5.15820896 1.31641791,5.15820896 1.20895522,5.15820896 C0.591044776,5.15820896 0.0805970149,5.61492537 0.0268656716,6.23283582 L0,6.55522388 C0,6.93134328 0.134328358,7.28059701 0.376119403,7.52238806 C0.591044776,7.73731343 0.886567164,7.84477612 1.20895522,7.84477612 C1.2358209,7.84477612 1.26268657,7.84477612 1.28955224,7.84477612 L3.65373134,7.73731343 C4.43283582,7.65671642 5.05074627,7.28059701 5.10447761,6.85074627 Z M5.64179104,9.1880597 C5.18507463,9.05373134 4.56716418,9.48358209 4.27164179,10.1820896 L2.01492537,15.1253731 C1.85373134,15.4746269 1.85373134,15.8238806 2.01492537,16.1462687 C2.1761194,16.4686567 2.44477612,16.7104478 2.82089552,16.8179104 L3.11641791,16.9253731 L3.14328358,16.9253731 C3.19701493,16.9253731 3.25074627,16.9253731 3.30447761,16.9253731 C3.94925373,16.9253731 4.67462687,16.6298507 4.8358209,16.0119403 L6.15223881,10.7462687 C6.28656716,10.0208955 6.09850746,9.32238806 5.64179104,9.1880597 Z M9.59104478,9.77910448 C9.24179104,9.40298507 8.78507463,9.16119403 8.40895522,9.16119403 C8.24776119,9.16119403 8.11343284,9.21492537 8.00597015,9.29552239 C7.65671642,9.59104478 7.71044776,10.3164179 8.16716418,10.961194 L12.438806,17.1940299 C12.680597,17.5701493 13.0835821,17.758209 13.4865672,17.758209 C13.7820896,17.758209 14.0776119,17.6507463 14.319403,17.4626866 L14.561194,17.2746269 C14.8567164,17.0328358 15.0179104,16.7104478 15.0447761,16.3343284 C15.0716418,15.958209 14.9373134,15.6089552 14.6955224,15.3402985 L9.59104478,9.77910448 Z M17.9731343,6.6358209 C17.919403,5.85671642 17.2746269,5.29253731 16.4955224,5.4 L10.1552239,6.34029851 C9.40298507,6.44776119 8.8119403,6.90447761 8.83880597,7.3880597 C8.86567164,7.87164179 9.48358209,8.24776119 10.2626866,8.24776119 L16.5223881,8.32835821 L16.5492537,8.32835821 C16.9522388,8.32835821 17.3552239,8.14029851 17.6507463,7.84477612 C17.8925373,7.5761194 18,7.25373134 18,6.93134328 L17.9731343,6.6358209 Z" id="搜一搜"></path>
        </g>
    </g>
</svg>