<?xml version="1.0" encoding="UTF-8"?>
<svg width="24px" height="24px" viewBox="0 0 24 24" version="1.1" xmlns="http://www.w3.org/2000/svg" xmlns:xlink="http://www.w3.org/1999/xlink">
    <!-- Generator: Sketch 52.2 (67145) - http://www.bohemiancoding.com/sketch -->
    <title>icons_filled_location</title>
    <desc>Created with Sketch.</desc>
    <g id="icons_filled_location" stroke="none" stroke-width="1" fill="none" fill-rule="evenodd">
        <g id="icon22" fill="#000000">
            <path d="M11.2617188,22.1344765 C11.2617188,22.1344765 4,16.018278 4,10 C4,5.581722 7.581722,2 12,2 C16.418278,2 20,5.581722 20,10 C20,16.018278 12.7382812,22.1344765 12.7382812,22.1344765 C12.3335649,22.5060199 11.6694602,22.502035 11.2617188,22.1344765 Z M12,13.5 C13.9329966,13.5 15.5,11.9329966 15.5,10 C15.5,8.06700338 13.9329966,6.5 12,6.5 C10.0670034,6.5 8.5,8.06700338 8.5,10 C8.5,11.9329966 10.0670034,13.5 12,13.5 Z" id="Combined-Shape"></path>
        </g>
    </g>
</svg>