<?xml version="1.0" encoding="UTF-8"?>
<svg width="24px" height="24px" viewBox="0 0 24 24" version="1.1" xmlns="http://www.w3.org/2000/svg" xmlns:xlink="http://www.w3.org/1999/xlink">
    <!-- Generator: Sketch 50.2 (55047) - http://www.bohemiancoding.com/sketch -->
    <title>icons_outlined_radar</title>
    <desc>Created with Sketch.</desc>
    <defs></defs>
    <g id="icons_outlined_radar" stroke="none" stroke-width="1" fill="none" fill-rule="evenodd">
        <g id="icon22" fill="#000000" fill-rule="nonzero">
            <path d="M17.8059641,5.38692301 C16.2565276,4.0255124 14.2246682,3.2 12,3.2 C7.1398942,3.2 3.2,7.1398942 3.2,12 C3.2,16.8601058 7.1398942,20.8 12,20.8 C16.8601058,20.8 20.8,16.8601058 20.8,12 C20.8,9.79643721 19.9900765,7.78204217 18.6516791,6.23826435 L16.6643548,8.22558862 C17.49961,9.25650353 18,10.5698156 18,12 C18,15.3137085 15.3137085,18 12,18 C8.6862915,18 6,15.3137085 6,12 C6,8.6862915 8.6862915,6 12,6 C13.4513356,6 14.7823164,6.51530012 15.8199646,7.37292249 L17.8059641,5.38692301 Z M14.9666237,8.22626342 C14.1500822,7.58347199 13.1198234,7.2 12,7.2 C9.3490332,7.2 7.2,9.3490332 7.2,12 C7.2,14.6509668 9.3490332,16.8 12,16.8 C14.6509668,16.8 16.8,14.6509668 16.8,12 C16.8,10.9013763 16.4309098,9.88895823 15.8099636,9.07997987 L13.4080978,11.4818456 C13.467543,11.6433372 13.5,11.8178782 13.5,12 C13.5,12.8284271 12.8284271,13.5 12,13.5 C11.1715729,13.5 10.5,12.8284271 10.5,12 C10.5,11.1715729 11.1715729,10.5 12,10.5 C12.2047103,10.5 12.3998428,10.5410076 12.5776309,10.6152562 L14.9666237,8.22626342 Z M12,22 C6.4771525,22 2,17.5228475 2,12 C2,6.4771525 6.4771525,2 12,2 C17.5228475,2 22,6.4771525 22,12 C22,17.5228475 17.5228475,22 12,22 Z" id="Combined-Shape"></path>
        </g>
    </g>
</svg>